<svg width="28" height="13" viewBox="0 0 28 13" fill="none" xmlns="http://www.w3.org/2000/svg">
<path fill-rule="evenodd" clip-rule="evenodd" d="M0 4C0 1.79086 1.79086 0 4 0H21C23.2091 0 25 1.79086 25 4V9C25 11.2091 23.2091 13 21 13H4C1.79086 13 0 11.2091 0 9V4Z" fill="#34C759"/>
<path d="M26 5V9.22034C26.8491 8.86291 27.4012 8.0314 27.4012 7.11017C27.4012 6.18894 26.8491 5.35744 26 5Z" fill="#34C759"/>
<path d="M5.72781 10.1562C4.03348 10.1562 2.86648 9.31152 2.86648 8.09082V8.08105C2.86648 7.16309 3.55008 6.48438 4.51199 6.29395V6.26465C3.6868 6.06445 3.12527 5.46875 3.12527 4.70215V4.69238C3.12527 3.59863 4.19461 2.79785 5.72781 2.79785C7.25613 2.79785 8.33035 3.59863 8.33035 4.69238V4.70215C8.33035 5.46875 7.76395 6.05957 6.94363 6.26465V6.29395C7.90066 6.47949 8.58914 7.16309 8.58914 8.08105V8.09082C8.58914 9.31152 7.42215 10.1562 5.72781 10.1562ZM5.72781 5.82031C6.40164 5.82031 6.87039 5.41992 6.87039 4.84375V4.83398C6.87039 4.25781 6.39676 3.8623 5.72781 3.8623C5.05398 3.8623 4.58035 4.25781 4.58035 4.83398V4.84375C4.58035 5.41992 5.0491 5.82031 5.72781 5.82031ZM5.72781 9.08203C6.4993 9.08203 7.04617 8.62793 7.04617 7.99316V7.9834C7.04617 7.34863 6.50906 6.88965 5.72781 6.88965C4.94656 6.88965 4.40457 7.34863 4.40457 7.9834V7.99316C4.40457 8.62793 4.95145 9.08203 5.72781 9.08203ZM12.6335 10.1807C10.8952 10.1807 9.83566 8.75488 9.83566 6.47949V6.46973C9.83566 4.18945 10.8952 2.77344 12.6335 2.77344C14.3767 2.77344 15.4314 4.18945 15.4314 6.46973V6.47949C15.4314 8.75488 14.3767 10.1807 12.6335 10.1807ZM12.6335 9.01367C13.4685 9.01367 13.9421 8.07129 13.9421 6.47949V6.46973C13.9421 4.87305 13.4685 3.94043 12.6335 3.94043C11.8034 3.94043 11.3298 4.87305 11.3298 6.46973V6.47949C11.3298 8.07129 11.8034 9.01367 12.6335 9.01367Z" fill="white"/>
<path d="M17.1562 6.9139C17.1562 6.98532 17.1811 7.04484 17.2309 7.09246C17.2807 7.13791 17.3424 7.16063 17.416 7.16063H19.3346L18.3282 9.84217C18.2936 9.93524 18.2871 10.0153 18.3087 10.0824C18.3325 10.1495 18.3726 10.1982 18.4288 10.2285C18.4851 10.2588 18.5479 10.2653 18.6171 10.248C18.6886 10.2307 18.7546 10.1841 18.8152 10.1084L21.909 6.31007C21.9696 6.23432 21.9999 6.15857 21.9999 6.08282C21.9999 6.0114 21.975 5.95296 21.9252 5.90751C21.8776 5.8599 21.8159 5.83609 21.7402 5.83609H19.8248L20.8279 3.15455C20.8647 3.06149 20.8712 2.98249 20.8474 2.91757C20.8258 2.85047 20.7868 2.80178 20.7306 2.77148C20.6743 2.74118 20.6104 2.73468 20.539 2.752C20.4698 2.76931 20.4048 2.81476 20.3442 2.88835L17.2504 6.6899C17.1876 6.76565 17.1562 6.84032 17.1562 6.9139Z" fill="white"/>
</svg>
