<svg width="28" height="13" viewBox="0 0 28 13" fill="none" xmlns="http://www.w3.org/2000/svg">
<path opacity="0.35" fill-rule="evenodd" clip-rule="evenodd" d="M9.08576 11.9449H4C2.37357 11.9449 1.05509 10.6264 1.05509 9V4C1.05509 2.37357 2.37357 1.05509 4 1.05509H11.5722L12.4309 2.19188e-10H4C1.79086 2.19188e-10 0 1.79086 0 4V9C0 11.2091 1.79086 13 4 13H9.04064C8.91448 12.6048 8.98168 12.2299 9.08576 11.9449ZM10.1538 11.9449L10.0891 12.1172L10.0274 12.2816C9.96749 12.4426 9.95626 12.5812 9.9937 12.6972C10.0349 12.8133 10.1041 12.8975 10.2015 12.9499C10.2988 13.0024 10.4074 13.0136 10.5272 12.9836C10.6508 12.9537 10.765 12.8732 10.8698 12.7422L11.5192 11.9449H10.1538ZM12.8089 11.9449H21C22.6264 11.9449 23.9449 10.6264 23.9449 9V4C23.9449 2.37357 22.6264 1.05509 21 1.05509H15.2915C15.3969 0.777862 15.4713 0.39963 15.3388 2.19188e-10H21C23.2091 2.19188e-10 25 1.79086 25 4V9C25 11.2091 23.2091 13 21 13H11.9495L12.8089 11.9449ZM13.9843 0C14.0558 0.000432651 14.1221 0.0171077 14.1832 0.0500277C14.2806 0.102438 14.348 0.186678 14.3854 0.302748C14.4266 0.415068 14.4154 0.551718 14.3517 0.712718L14.2236 1.05509H12.8615L13.5149 0.252198C13.6198 0.124908 13.7321 0.0462777 13.8519 0.0163277C13.8958 0.00568748 13.938 0.000244754 13.9786 0H13.9843ZM13.4236 0.340127C13.4235 0.340399 13.4233 0.340955 13.423 0.341808L13.4236 0.340127Z" fill="white"/>
<path fill-rule="evenodd" clip-rule="evenodd" d="M7.43797 8.24752L7.44635 8.25562L7.45492 8.26342C7.74285 8.52632 8.09734 8.64282 8.4493 8.64282H10.3249L9.4403 11H4C2.89543 11 2 10.1046 2 9V4C2 2.89543 2.89543 2 4 2H10.8032L7.38959 6.19448C7.18399 6.44391 7.00002 6.78979 7.00002 7.21604C7.00002 7.60121 7.14661 7.96886 7.43797 8.24752ZM12.0925 2H13.8701L12.6164 5.35153H15.9298C16.0608 5.35153 16.1675 5.39271 16.2499 5.47508C16.336 5.5537 16.3791 5.65479 16.3791 5.77834C16.3791 5.90938 16.3267 6.04042 16.2218 6.17146L12.2889 11H10.5084L11.7684 7.64285H8.4493C8.32201 7.64285 8.21531 7.60354 8.12919 7.52492C8.04308 7.44255 8.00003 7.33959 8.00003 7.21604C8.00003 7.08874 8.05431 6.95957 8.16289 6.82853L12.0925 2ZM13.5786 11L16.9972 6.80303L17.0027 6.79616C17.2089 6.53831 17.379 6.19364 17.379 5.77834C17.379 5.39971 17.2367 5.03077 16.9408 4.75207C16.6494 4.46953 16.2833 4.35153 15.9298 4.35153H14.0581L14.9378 2H16C17.1046 2 18 2.89543 18 4V9C18 10.1046 17.1046 11 16 11H13.5786Z" fill="#34C759"/>
<path opacity="0.4" d="M26 5V9.22034C26.8491 8.86291 27.4012 8.0314 27.4012 7.11017C27.4012 6.18894 26.8491 5.35744 26 5Z" fill="white"/>
<path d="M8 7.21604C8 7.33959 8.04306 7.44255 8.12917 7.52492C8.21528 7.60354 8.32198 7.64286 8.44928 7.64286H11.7683L10.0274 12.2817C9.96747 12.4427 9.95624 12.5812 9.99368 12.6972C10.0349 12.8133 10.1041 12.8976 10.2015 12.95C10.2988 13.0024 10.4074 13.0136 10.5272 12.9837C10.6507 12.9537 10.7649 12.8732 10.8698 12.7422L16.2218 6.17147C16.3266 6.04043 16.3791 5.90939 16.3791 5.77835C16.3791 5.65479 16.336 5.55371 16.2499 5.47508C16.1675 5.39271 16.0608 5.35153 15.9298 5.35153H12.6163L14.3517 0.712721C14.4153 0.551729 14.4266 0.415073 14.3854 0.302753C14.3479 0.186689 14.2806 0.102449 14.1832 0.0500334C14.0859 -0.00238254 13.9754 -0.0136145 13.8519 0.0163374C13.7321 0.0462894 13.6197 0.124913 13.5149 0.252209L8.16286 6.82854C8.05429 6.95958 8 7.08874 8 7.21604Z" fill="white"/>
</svg>
