<svg width="11" height="9" viewBox="0 0 11 9" fill="none" xmlns="http://www.w3.org/2000/svg">
<mask id="path-1-inside-1_3_1037" fill="white">
<path d="M2.3934 8.53553C1.68851 7.83064 1.21041 6.93114 1.0205 5.95253C0.830593 4.97392 0.937541 3.96088 1.32761 3.0435C1.71769 2.12613 2.37308 1.34629 3.20962 0.804129C4.04616 0.26197 5.02567 -0.0177547 6.02236 0.000873117C7.01906 0.019501 7.98743 0.335631 8.80313 0.908669C9.61883 1.48171 10.2446 2.28549 10.6001 3.21681C10.9557 4.14812 11.0247 5.16445 10.7983 6.13528C10.572 7.1061 10.0606 7.98712 9.32989 8.66517L8.39391 7.65648C8.92354 7.16503 9.29418 6.52648 9.45823 5.82284C9.62228 5.11919 9.57226 4.38257 9.31458 3.70756C9.0569 3.03255 8.60333 2.44998 8.01212 2.03464C7.42091 1.61931 6.71904 1.39018 5.99665 1.37668C5.27426 1.36318 4.56432 1.56592 3.958 1.95887C3.35168 2.35182 2.87666 2.91704 2.59394 3.58195C2.31122 4.24686 2.23371 4.9811 2.37135 5.69038C2.50899 6.39967 2.85551 7.05162 3.36641 7.56252L2.3934 8.53553Z"/>
</mask>
<path d="M2.3934 8.53553C1.68851 7.83064 1.21041 6.93114 1.0205 5.95253C0.830593 4.97392 0.937541 3.96088 1.32761 3.0435C1.71769 2.12613 2.37308 1.34629 3.20962 0.804129C4.04616 0.26197 5.02567 -0.0177547 6.02236 0.000873117C7.01906 0.019501 7.98743 0.335631 8.80313 0.908669C9.61883 1.48171 10.2446 2.28549 10.6001 3.21681C10.9557 4.14812 11.0247 5.16445 10.7983 6.13528C10.572 7.1061 10.0606 7.98712 9.32989 8.66517L8.39391 7.65648C8.92354 7.16503 9.29418 6.52648 9.45823 5.82284C9.62228 5.11919 9.57226 4.38257 9.31458 3.70756C9.0569 3.03255 8.60333 2.44998 8.01212 2.03464C7.42091 1.61931 6.71904 1.39018 5.99665 1.37668C5.27426 1.36318 4.56432 1.56592 3.958 1.95887C3.35168 2.35182 2.87666 2.91704 2.59394 3.58195C2.31122 4.24686 2.23371 4.9811 2.37135 5.69038C2.50899 6.39967 2.85551 7.05162 3.36641 7.56252L2.3934 8.53553Z" stroke="url(#paint0_linear_3_1037)" stroke-width="3" mask="url(#path-1-inside-1_3_1037)"/>
<defs>
<linearGradient id="paint0_linear_3_1037" x1="2.42892" y1="7.5" x2="9.42892" y2="7.5" gradientUnits="userSpaceOnUse">
<stop stop-color="#64E6B2"/>
<stop offset="0.5" stop-color="#F0D456"/>
<stop offset="1" stop-color="#EF8338"/>
</linearGradient>
</defs>
</svg>
