<svg width="40" height="17" viewBox="0 0 40 17" fill="none" xmlns="http://www.w3.org/2000/svg">
<g clip-path="url(#clip0_3_358)">
<path d="M3.9 3V6.4H2H1.9V6.5V12V12.1H2H3.9V15V15.1H4H5.5H5.6V15V12.1H7.5H7.6V12V6.5V6.4H7.5H5.6V3V2.9H5.5H4H3.9V3ZM11.2182 1V3.56667H9.5H9.4V3.66667V12V12.1H9.5H11.2182V15V15.1H11.3182H12.6818H12.7818V15V12.1H14.5H14.6V12V3.66667V3.56667H14.5H12.7818V1V0.9H12.6818H11.3182H11.2182V1Z" fill="#A0A3A7" stroke="#A0A3A7" stroke-width="0.2"/>
</g>
<path d="M25.8 11V11.2H26H29.9482L34.3 13.6177V15V15.2H34.5H38.5H38.7V15V11V10.8H38.5H34.5H34.3V11V12.1601L30.2 9.88232V8.11768L34.3 5.8399V6.5V6.7H34.5H38.5H38.7V6.5V2.5V2.3H38.5H34.5H34.3V2.5V4.38232L29.9482 6.8H26H25.8V7V11Z" fill="#A0A3A7" stroke="#A0A3A7" stroke-width="0.4"/>
<defs>
<clipPath id="clip0_3_358">
<rect width="16" height="16" fill="white" transform="translate(0 0.5)"/>
</clipPath>
</defs>
</svg>
