<svg width="25" height="24" viewBox="0 0 25 24" fill="none" xmlns="http://www.w3.org/2000/svg">
<path d="M19.4 9H5.5V16.9C5.5 16.9552 5.54477 17 5.6 17H19.4C19.4552 17 19.5 16.9552 19.5 16.9V9.1C19.5 9.04477 19.4552 9 19.4 9Z" fill="#A0A3A7"/>
<path d="M17 5H5.5V9M5.5 9H19.4C19.4552 9 19.5 9.04477 19.5 9.1V16.9C19.5 16.9552 19.4552 17 19.4 17H5.6C5.54477 17 5.5 16.9552 5.5 16.9V9Z" stroke="#A0A3A7"/>
<path d="M17.1464 12.1464L16.3536 11.3536C16.1583 11.1583 15.8417 11.1583 15.6464 11.3536L14.8536 12.1464C14.6583 12.3417 14.6583 12.6583 14.8536 12.8536L15.6464 13.6464C15.8417 13.8417 16.1583 13.8417 16.3536 13.6464L17.1464 12.8536C17.3417 12.6583 17.3417 12.3417 17.1464 12.1464Z" fill="#070808"/>
</svg>
