<svg width="2" height="3" viewBox="0 0 2 3" fill="none" xmlns="http://www.w3.org/2000/svg">
<mask id="path-1-inside-1_3_1041" fill="white">
<path d="M0 0.5L1.47018 0.990059C1.78658 1.09553 2 1.39163 2 1.72515C2 2.15309 1.65309 2.5 1.22515 2.5C0.891629 2.5 0.595528 2.28658 0.490059 1.97018L0 0.5Z"/>
</mask>
<path d="M1.47018 0.990059L2.20804 -1.22354L1.47018 0.990059ZM0 0.5L0.737865 -1.71359L-3.68932 -3.18932L-2.21359 1.23786L0 0.5ZM0.490059 1.97018L2.70365 1.23231V1.23231L0.490059 1.97018ZM2.20804 -1.22354L0.737865 -1.71359L-0.737865 2.71359L0.732313 3.20365L2.20804 -1.22354ZM-2.21359 1.23786L-1.72354 2.70804L2.70365 1.23231L2.21359 -0.237865L-2.21359 1.23786ZM1.22515 4.83333C2.94175 4.83333 4.33333 3.44175 4.33333 1.72515H-0.333333C-0.333333 0.864422 0.364423 0.166667 1.22515 0.166667V4.83333ZM0.732313 3.20365C0.095919 2.99152 -0.333333 2.39597 -0.333333 1.72515H4.33333C4.33333 0.387291 3.47725 -0.800467 2.20804 -1.22354L0.732313 3.20365ZM-1.72354 2.70804C-1.30047 3.97725 -0.112709 4.83333 1.22515 4.83333V0.166667C1.89597 0.166667 2.49152 0.595919 2.70365 1.23231L-1.72354 2.70804Z" fill="#D8D8D8" mask="url(#path-1-inside-1_3_1041)"/>
</svg>
